<?xml version="1.0" encoding="UTF-8" standalone="no"?>
<!-- Created with Inkscape (http://www.inkscape.org/) -->

<svg
   xmlns:dc="http://purl.org/dc/elements/1.1/"
   xmlns:cc="http://creativecommons.org/ns#"
   xmlns:rdf="http://www.w3.org/1999/02/22-rdf-syntax-ns#"
   xmlns:svg="http://www.w3.org/2000/svg"
   xmlns="http://www.w3.org/2000/svg"
   xmlns:sodipodi="http://sodipodi.sourceforge.net/DTD/sodipodi-0.dtd"
   xmlns:inkscape="http://www.inkscape.org/namespaces/inkscape"
   width="32px"
   height="32px"
   id="svg3841"
   version="1.1"
   inkscape:version="0.48.4 r9939"
   inkscape:export-filename="C:\Users\Rob\Pictures\ss13\bans.png"
   inkscape:export-xdpi="90"
   inkscape:export-ydpi="90"
   sodipodi:docname="New document 4">
  <defs
     id="defs3843" />
  <sodipodi:namedview
     id="base"
     pagecolor="#ffffff"
     bordercolor="#666666"
     borderopacity="1.0"
     inkscape:pageopacity="0.0"
     inkscape:pageshadow="2"
     inkscape:zoom="1"
     inkscape:cx="15.744541"
     inkscape:cy="16.288609"
     inkscape:current-layer="layer1"
     showgrid="true"
     inkscape:grid-bbox="true"
     inkscape:document-units="px"
     inkscape:window-width="1920"
     inkscape:window-height="1018"
     inkscape:window-x="-8"
     inkscape:window-y="-8"
     inkscape:window-maximized="1" />
  <metadata
     id="metadata3846">
    <rdf:RDF>
      <cc:Work
         rdf:about="">
        <dc:format>image/svg+xml</dc:format>
        <dc:type
           rdf:resource="http://purl.org/dc/dcmitype/StillImage" />
        <dc:title></dc:title>
      </cc:Work>
    </rdf:RDF>
  </metadata>
  <g
     id="layer1"
     inkscape:label="Layer 1"
     inkscape:groupmode="layer">
    <path
       sodipodi:type="arc"
       style="fill:#803300;fill-opacity:1;stroke:none"
       id="path3851"
       sodipodi:cx="17.1875"
       sodipodi:cy="11"
       sodipodi:rx="7.6875"
       sodipodi:ry="2.6875"
       d="m 17.1875,8.3125 a 7.6875,2.6875 0 1 1 -2e-6,0"
       sodipodi:start="4.712389"
       sodipodi:end="10.995574"
       sodipodi:open="true"
       transform="matrix(0.98882862,-0.14905688,0.14905688,0.98882862,-5.4823363,-2.1769055)" />
    <path
       sodipodi:open="true"
       sodipodi:end="10.995574"
       sodipodi:start="4.712389"
       d="m 17.1875,8.3125 a 7.6875,2.6875 0 1 1 -2e-6,0"
       sodipodi:ry="2.6875"
       sodipodi:rx="7.6875"
       sodipodi:cy="11"
       sodipodi:cx="17.1875"
       id="path3853"
       style="fill:#803300;fill-opacity:1;stroke:none"
       sodipodi:type="arc"
       transform="matrix(0.98882862,-0.14905688,0.14905688,0.98882862,-2.8831569,15.065793)" />
    <path
       transform="matrix(0.98882862,-0.14905688,0.08319453,0.55190434,-3.1601472,13.228268)"
       sodipodi:type="arc"
       style="fill:#803300;fill-opacity:1;stroke:none"
       id="path3857"
       sodipodi:cx="17.1875"
       sodipodi:cy="11"
       sodipodi:rx="7.6875"
       sodipodi:ry="2.6875"
       d="m 17.1875,8.3125 a 7.6875,2.6875 0 1 1 -2e-6,0"
       sodipodi:start="4.712389"
       sodipodi:end="10.995574"
       sodipodi:open="true" />
    <path
       sodipodi:open="true"
       sodipodi:end="10.995574"
       sodipodi:start="4.712389"
       d="m 17.1875,8.3125 a 7.6875,2.6875 0 1 1 -2e-6,0"
       sodipodi:ry="2.6875"
       sodipodi:rx="7.6875"
       sodipodi:cy="11"
       sodipodi:cx="17.1875"
       id="path3859"
       style="fill:#803300;fill-opacity:1;stroke:none"
       sodipodi:type="arc"
       transform="matrix(0.98882862,-0.14905688,0.08319453,0.55190434,-3.7563746,9.2729537)" />
    <path
       style="fill:#552200;stroke:none"
       d="M 7.448053,8.5467794 C 8.2179279,9.0417204 9.9064289,10.599102 8.0908609,12.811102 12.791883,11.393682 14.88815,11.087911 19.947488,10.960619 17.952391,9.3760366 19.002153,7.5350336 19.341945,6.9435022 15.573802,6.3289392 11.238579,6.7228608 7.448053,8.5467794 z"
       id="path3861"
       inkscape:connector-curvature="0"
       sodipodi:nodetypes="ccccc" />
    <path
       sodipodi:nodetypes="ccccc"
       inkscape:connector-curvature="0"
       id="path4371"
       d="m 8.9386213,18.435065 c 2.3578487,0.950836 1.3216247,3.234976 0.8188973,4.174574 3.9652524,-1.594907 7.0962584,-2.061945 11.6805384,-1.760734 -0.845256,-0.78263 -2.820887,-2.6117 -0.624176,-4.14072 -4.568772,-0.295226 -7.735275,0.201746 -11.8752597,1.72688 z"
       style="fill:#552200;stroke:none" />
    <path
       style="fill:#552200;stroke:none"
       d="m 7.9931684,14.469188 0.3726423,2.472071 C 12.00609,15.578603 16.013942,14.75121 20.911574,15.0501 l -0.363327,-2.41027 c -4.30808,-0.121187 -8.319506,0.213393 -12.5550786,1.829358 z"
       id="path4373"
       inkscape:connector-curvature="0"
       sodipodi:nodetypes="ccccc" />
    <path
       style="fill:#552200;stroke:none"
       d="m 20.254918,13.000077 13.911308,-2.476238 0.239722,2.428901 -13.819063,1.830273 z"
       id="path4375"
       inkscape:connector-curvature="0"
       sodipodi:nodetypes="ccccc" />
  </g>
</svg>
