<?xml version="1.0" encoding="UTF-8" standalone="no"?>
<!-- Created with Inkscape (http://www.inkscape.org/) -->

<svg
   xmlns:dc="http://purl.org/dc/elements/1.1/"
   xmlns:cc="http://creativecommons.org/ns#"
   xmlns:rdf="http://www.w3.org/1999/02/22-rdf-syntax-ns#"
   xmlns:svg="http://www.w3.org/2000/svg"
   xmlns="http://www.w3.org/2000/svg"
   xmlns:sodipodi="http://sodipodi.sourceforge.net/DTD/sodipodi-0.dtd"
   xmlns:inkscape="http://www.inkscape.org/namespaces/inkscape"
   width="32px"
   height="32px"
   viewBox="0 0 32 32"
   version="1.1"
   id="SVGRoot"
   inkscape:version="0.92.3 (2405546, 2018-03-11)"
   sodipodi:docname="gear.svg">
  <sodipodi:namedview
     id="base"
     pagecolor="#ffffff"
     bordercolor="#666666"
     borderopacity="1.0"
     inkscape:pageopacity="0.0"
     inkscape:pageshadow="2"
     inkscape:zoom="8"
     inkscape:cx="20.170611"
     inkscape:cy="10.100153"
     inkscape:document-units="px"
     inkscape:current-layer="layer1"
     showgrid="false"
     inkscape:window-width="1920"
     inkscape:window-height="1015"
     inkscape:window-x="0"
     inkscape:window-y="0"
     inkscape:window-maximized="1"
     inkscape:grid-bbox="true"
     inkscape:pagecheckerboard="true" />
  <defs
     id="defs815" />
  <metadata
     id="metadata818">
    <rdf:RDF>
      <cc:Work
         rdf:about="">
        <dc:format>image/svg+xml</dc:format>
        <dc:type
           rdf:resource="http://purl.org/dc/dcmitype/StillImage" />
        <dc:title></dc:title>
      </cc:Work>
    </rdf:RDF>
  </metadata>
  <g
     inkscape:label="Layer 1"
     inkscape:groupmode="layer"
     id="layer1">
    <path
       style="fill:#ffffff;stroke:#000000;stroke-width:1;stroke-miterlimit:4;stroke-dasharray:none"
       d="m 17.537339,1.1249997 -1.839843,2.611328 -0.171875,0.742188 0.0293,1.984375 -2.986329,0.527343 -0.65039,-1.876953 -0.414063,-0.636718 -2.6230472,-1.826172 -1.335937,0.771484 0.269531,3.183594 0.345703,0.677734 1.298828,1.501953 -1.949218,2.3222663 -1.705078,-1.017578 -0.728516,-0.2207033 -3.179688,0.2851563 -0.529296,1.451172 2.253906,2.265625 0.699219,0.296875 1.960937,0.316406 v 3.03125 l -1.960937,0.316406 -0.699219,0.296875 -2.253906,2.265625 0.529296,1.451172 3.179688,0.285156 0.728516,-0.220703 1.705078,-1.017578 1.949218,2.322266 -1.298828,1.501953 -0.345703,0.677734 -0.269531,3.183594 1.335937,0.771484 2.6230472,-1.826171 0.414063,-0.636719 0.65039,-1.876953 2.986329,0.527343 -0.0293,1.984375 0.171875,0.742188 1.839843,2.611328 1.519532,-0.267578 0.835937,-3.083984 -0.09375,-0.753907 -0.705078,-1.855469 2.625,-1.517578 1.253906,1.541016 0.607422,0.457031 3.087891,0.81836 0.992187,-1.181641 -1.341797,-2.900391 -0.55664,-0.517578 -1.734375,-0.96875 1.037109,-2.847656 1.951172,0.373047 0.757813,-0.04102 2.892578,-1.357422 v -1.542968 l -2.892578,-1.357422 -0.757813,-0.04102 -1.951172,0.373047 -1.037109,-2.847656 1.734375,-0.96875 0.55664,-0.5175783 1.341797,-2.900391 -0.992187,-1.181641 -3.087891,0.81836 -0.607422,0.457031 -1.253906,1.541016 -2.625,-1.517578 0.705078,-1.855469 0.09375,-0.753906 -0.835937,-3.083985 z M 15.697496,12.789062 A 3.2105095,3.2105095 0 0 1 18.908433,16 3.2105095,3.2105095 0 0 1 15.697496,19.210938 3.2105095,3.2105095 0 0 1 12.486558,16 3.2105095,3.2105095 0 0 1 15.697496,12.789062 Z"
       id="path1496"
       inkscape:connector-curvature="0" />
  </g>
</svg>
